<?xml version="1.0" encoding="UTF-8" standalone="no"?>
<svg version="1.0" width="580" height="580" xmlns="http://www.w3.org/2000/svg">
 <metadata id="metadata10"/>
 <g transform="matrix(1.0713726,0,0,1.0713726,-18.711727,-143.29897)" id="g1636" opacity="0.8" fill="none" stroke="#ffffff" vector-effect="none" stroke-linejoin="round" stroke-width="59.74">
  <path d="m 60.146484,463.92969 a 15,15 0 0 0 -15,15 15,15 0 0 0 15,15 H 516.14648 a 15,15 0 0 0 15,-15 15,15 0 0 0 -15,-15 z" id="path1628" vector-effect="none" color="#000000" stroke-width="59.74"/>
  <path d="m 80.146484,408.92969 a 12.5,12.5 0 0 0 -12.5,12.5 12.5,12.5 0 0 0 12.5,12.5 H 496.14453 a 12.5,12.5 0 0 0 12.5,-12.5 12.5,12.5 0 0 0 -12.5,-12.5 z" id="path1630" vector-effect="none" color="#000000" stroke-width="59.74"/>
  <path d="m 100.14648,360.43164 a 10,10 0 0 0 -9.999996,10 10,10 0 0 0 9.999996,10 h 375.9961 a 10,10 0 0 0 10,-10 10,10 0 0 0 -10,-10 z" id="path1632" vector-effect="none" color="#000000" stroke-width="59.74"/>
  <path d="m 120.14844,314.9375 a 9,9 0 0 0 -9,9 9,9 0 0 0 9,9 h 335.99218 a 9,9 0 0 0 9,-9 9,9 0 0 0 -9,-9 z" id="path1634" vector-effect="none" color="#000000" stroke-width="59.74"/>
 </g>
 <g transform="matrix(1.0713726,0,0,1.0713726,-18.711727,-143.29897)" id="g2325" stroke="#666666">
  <path d="m 60.146484,463.92969 a 15,15 0 0 0 -15,15 15,15 0 0 0 15,15 H 516.14648 a 15,15 0 0 0 15,-15 15,15 0 0 0 -15,-15 z" id="line5891" fill="#666666" stroke="none" color="#000000"/>
  <path d="m 80.146484,408.92969 a 12.5,12.5 0 0 0 -12.5,12.5 12.5,12.5 0 0 0 12.5,12.5 H 496.14453 a 12.5,12.5 0 0 0 12.5,-12.5 12.5,12.5 0 0 0 -12.5,-12.5 z" id="line5893" fill="#666666" stroke="none" color="#000000"/>
  <path d="m 100.14648,360.43164 a 10,10 0 0 0 -9.999996,10 10,10 0 0 0 9.999996,10 h 375.9961 a 10,10 0 0 0 10,-10 10,10 0 0 0 -10,-10 z" id="line5895" fill="#666666" stroke="none" color="#000000"/>
  <path d="m 120.14844,314.9375 a 9,9 0 0 0 -9,9 9,9 0 0 0 9,9 h 335.99218 a 9,9 0 0 0 9,-9 9,9 0 0 0 -9,-9 z" id="line5897" fill="#666666" stroke="none" color="#000000"/>
 </g>
</svg>
