<?xml version="1.0" encoding="UTF-8" standalone="no"?>
<svg
   width="580"
   height="580"
   version="1.0"
   id="svg9"
   sodipodi:docname="s_lounger.svg"
   inkscape:export-filename="Z:\Sonstiges\Wandern\mapstyles\ElevateDev\ele-res\s_lounger.png"
   inkscape:export-xdpi="7"
   inkscape:export-ydpi="7"
   inkscape:version="1.1.1 (3bf5ae0d25, 2021-09-20)"
   xmlns:inkscape="http://www.inkscape.org/namespaces/inkscape"
   xmlns:sodipodi="http://sodipodi.sourceforge.net/DTD/sodipodi-0.dtd"
   xmlns="http://www.w3.org/2000/svg"
   xmlns:svg="http://www.w3.org/2000/svg">
  <defs
     id="defs13" />
  <sodipodi:namedview
     id="namedview11"
     pagecolor="#ffffff"
     bordercolor="#666666"
     borderopacity="1.0"
     inkscape:pageshadow="2"
     inkscape:pageopacity="0.0"
     inkscape:pagecheckerboard="0"
     showgrid="false"
     inkscape:zoom="1.2396552"
     inkscape:cx="289.59666"
     inkscape:cy="289.59666"
     inkscape:window-width="3072"
     inkscape:window-height="1796"
     inkscape:window-x="-12"
     inkscape:window-y="-12"
     inkscape:window-maximized="1"
     inkscape:current-layer="svg9" />
  <metadata
     id="metadata7" />
  <g
     id="g923"
     opacity="0.8"
     fill="none"
     stroke="#ffffff"
     vector-effect="none"
     stroke-linejoin="round"
     stroke-width="64">
    <path
       id="path919"
       d="m 198.21875,397.58646 v 100.96289 h 56 V 397.58646 Z m 36.1663,-227.16315 a 32,32 0 0 0 -23.09766,8.14844 32,32 0 0 0 -2.41992,45.18945 l 60.46289,67.30859 a 32,32 0 0 0 45.18946,2.41992 32,32 0 0 0 2.42187,-45.18945 L 256.4788,180.99167 a 32,32 0 0 0 -22.09375,-10.56836 z m 157.27963,57.93744 a 21.440131,23.503657 0 0 0 -7.09017,0.78033 l -96.80765,29.04576 a 21.437987,23.501307 0 0 0 -15.0195,28.86981 21.437987,23.501307 0 0 0 26.33689,16.46506 l 89.6355,-26.89224 96.5826,44.85483 a 21.437987,23.501307 0 0 0 28.10244,-12.47168 21.437987,23.501307 0 0 0 -11.3767,-30.80721 l -103.432,-48.03539 a 21.440131,23.503657 0 0 0 -6.93141,-1.80927 z M 216.13079,125.08671 a 43.636059,43.636059 0 0 1 -43.63606,43.63604 43.636059,43.636059 0 0 1 -43.63606,-43.63604 43.636059,43.636059 0 0 1 43.63606,-43.636063 43.636059,43.636059 0 0 1 43.63606,43.636063 z m 192.98204,272.49975 v 100.96289 h 56 V 397.58646 Z M 76.843751,172.76224 l -42.9375,35.94922 17.97656,21.46875 173.019529,206.64648 154.87305,-43.21875 118.00391,52.38672 25.59179,11.36133 22.72266,-51.1836 -25.5918,-11.36132 L 384.10547,334.25833 244.64844,373.17825 94.818351,194.22904 Z"
       vector-effect="none"
       color="#000000" />
    <path
       id="path921"
       d="m 198.21875,397.58646 v 100.96289 h 56 V 397.58646 Z m 36.1663,-227.16315 a 32,32 0 0 0 -23.09766,8.14844 32,32 0 0 0 -2.41992,45.18945 l 60.46289,67.30859 a 32,32 0 0 0 45.18946,2.41992 32,32 0 0 0 2.42187,-45.18945 L 256.4788,180.99167 a 32,32 0 0 0 -22.09375,-10.56836 z m 157.27963,57.93744 a 21.440131,23.503657 0 0 0 -7.09017,0.78033 l -96.80765,29.04576 a 21.437987,23.501307 0 0 0 -15.0195,28.86981 21.437987,23.501307 0 0 0 26.33689,16.46506 l 89.6355,-26.89224 96.5826,44.85483 a 21.437987,23.501307 0 0 0 28.10244,-12.47168 21.437987,23.501307 0 0 0 -11.3767,-30.80721 l -103.432,-48.03539 a 21.440131,23.503657 0 0 0 -6.93141,-1.80927 z M 216.13079,125.08671 a 43.636059,43.636059 0 0 1 -43.63606,43.63604 43.636059,43.636059 0 0 1 -43.63606,-43.63604 43.636059,43.636059 0 0 1 43.63606,-43.636063 43.636059,43.636059 0 0 1 43.63606,43.636063 z m 192.98204,272.49975 v 100.96289 h 56 V 397.58646 Z M 76.843751,172.76224 l -42.9375,35.94922 17.97656,21.46875 173.019529,206.64648 154.87305,-43.21875 118.00391,52.38672 25.59179,11.36133 22.72266,-51.1836 -25.5918,-11.36132 L 384.10547,334.25833 244.64844,373.17825 94.818351,194.22904 Z"
       vector-effect="none"
       color="#000000" />
  </g>
  <g
     id="g859">
    <path
       id="path5640"
       d="m 198.21875,397.58646 v 100.96289 h 56 V 397.58646 Z m 36.1663,-227.16315 a 32,32 0 0 0 -23.09766,8.14844 32,32 0 0 0 -2.41992,45.18945 l 60.46289,67.30859 a 32,32 0 0 0 45.18946,2.41992 32,32 0 0 0 2.42187,-45.18945 L 256.4788,180.99167 a 32,32 0 0 0 -22.09375,-10.56836 z m 157.27963,57.93744 a 21.440131,23.503657 0 0 0 -7.09017,0.78033 l -96.80765,29.04576 a 21.437987,23.501307 0 0 0 -15.0195,28.86981 21.437987,23.501307 0 0 0 26.33689,16.46506 l 89.6355,-26.89224 96.5826,44.85483 a 21.437987,23.501307 0 0 0 28.10244,-12.47168 21.437987,23.501307 0 0 0 -11.3767,-30.80721 l -103.432,-48.03539 a 21.440131,23.503657 0 0 0 -6.93141,-1.80927 z M 216.13079,125.08671 a 43.636059,43.636059 0 0 1 -43.63606,43.63604 43.636059,43.636059 0 0 1 -43.63606,-43.63604 43.636059,43.636059 0 0 1 43.63606,-43.636063 43.636059,43.636059 0 0 1 43.63606,43.636063 z m 192.98204,272.49975 v 100.96289 h 56 V 397.58646 Z M 76.843751,172.76224 l -42.9375,35.94922 17.97656,21.46875 173.019529,206.64648 154.87305,-43.21875 118.00391,52.38672 25.59179,11.36133 22.72266,-51.1836 -25.5918,-11.36132 L 384.10547,334.25833 244.64844,373.17825 94.818351,194.22904 Z"
       color="#000000" />
    <path
       id="path880"
       d="m 198.21875,397.58646 v 100.96289 h 56 V 397.58646 Z m 36.1663,-227.16315 a 32,32 0 0 0 -23.09766,8.14844 32,32 0 0 0 -2.41992,45.18945 l 60.46289,67.30859 a 32,32 0 0 0 45.18946,2.41992 32,32 0 0 0 2.42187,-45.18945 L 256.4788,180.99167 a 32,32 0 0 0 -22.09375,-10.56836 z m 157.27963,57.93744 a 21.440131,23.503657 0 0 0 -7.09017,0.78033 l -96.80765,29.04576 a 21.437987,23.501307 0 0 0 -15.0195,28.86981 21.437987,23.501307 0 0 0 26.33689,16.46506 l 89.6355,-26.89224 96.5826,44.85483 a 21.437987,23.501307 0 0 0 28.10244,-12.47168 21.437987,23.501307 0 0 0 -11.3767,-30.80721 l -103.432,-48.03539 a 21.440131,23.503657 0 0 0 -6.93141,-1.80927 z M 216.13079,125.08671 a 43.636059,43.636059 0 0 1 -43.63606,43.63604 43.636059,43.636059 0 0 1 -43.63606,-43.63604 43.636059,43.636059 0 0 1 43.63606,-43.636063 43.636059,43.636059 0 0 1 43.63606,43.636063 z m 192.98204,272.49975 v 100.96289 h 56 V 397.58646 Z M 76.843751,172.76224 l -42.9375,35.94922 17.97656,21.46875 173.019529,206.64648 154.87305,-43.21875 118.00391,52.38672 25.59179,11.36133 22.72266,-51.1836 -25.5918,-11.36132 L 384.10547,334.25833 244.64844,373.17825 94.818351,194.22904 Z"
       color="#000000" />
  </g>
</svg>
